<svg xmlns="http://www.w3.org/2000/svg" viewBox="0 0 711 800" fill="none">
  <path fill-rule="evenodd" clip-rule="evenodd" d="M87.0247 0.87374C78.3267 3.52874 70.6727 10.2707 66.7047 18.7687L64.5247 23.4387L64.2567 154.689L63.9887 285.939H51.7167C37.2787 285.939 30.1507 287.503 21.9907 292.46C11.2397 298.991 3.41469 310.337 1.04569 322.83C-0.37331 330.308 -0.336309 563.123 1.08469 571.88C3.68969 587.934 15.3567 601.661 30.8257 606.872C35.8287 608.557 39.4617 608.939 50.4927 608.939H64.0247V689.39C64.0247 743.987 64.3777 771.544 65.1237 775.14C67.1087 784.706 73.0667 792.449 82.0247 797.102L86.5247 799.439L353.888 799.695L621.25 799.95L627.188 797.285C634.243 794.119 640.991 787.121 643.678 780.183C645.4 775.737 645.534 770.21 645.798 692.278L646.08 609.117L661.359 608.778L676.638 608.439L684.156 604.721C697.251 598.245 706.722 585.539 709.049 571.326C710.418 562.968 710.333 332.433 708.958 323.958C706.059 306.088 692.131 290.969 674.91 286.999C672.498 286.443 665.036 285.977 658.327 285.963L646.129 285.939L645.827 236.689C645.56 193.165 645.333 187.09 643.875 184.439C642.967 182.789 609.939 144.539 570.479 99.4387C482.655 -0.938263 487.307 4.27574 483.46 1.89874C480.338 -0.0312604 477.294 -0.0602604 284.907 0.0247396C177.447 0.0717396 88.3997 0.45374 87.0247 0.87374ZM459.258 114.767L459.525 197.595L462.407 201.373C467.618 208.205 464.377 207.939 542.493 207.939H613.025V246.939V285.939H355.025H97.0247V158.939V31.9387H278.008H458.991L459.258 114.767ZM220.025 321.241C226.35 322.604 233.717 324.676 236.397 325.846C240.864 327.796 241.218 328.199 240.661 330.706C239.27 336.968 231.103 368.194 230.769 368.528C230.569 368.728 228.108 368.018 225.3 366.951C210.528 361.339 183.523 359.179 168.26 362.39C140.746 368.177 122.516 384.968 114.785 411.64C112.801 418.488 112.525 421.695 112.525 437.939C112.525 458.682 113.473 463.923 119.557 476.804C122.888 483.857 130.553 494.505 134.943 498.177C144.351 506.048 158.264 511.987 172.002 513.996C187.316 516.235 215.139 513.725 227.414 508.996C229.002 508.384 230.459 508.04 230.65 508.231C230.841 508.422 232.719 517.547 234.822 528.509L238.647 548.439L235.586 549.749C233.902 550.469 229.375 551.887 225.525 552.901C210.79 556.779 204.005 557.44 179.525 557.384C154.036 557.326 145.879 556.26 129.867 550.898C102.141 541.614 80.8487 522.813 68.5877 496.791C60.6417 479.926 57.0217 462.176 57.0287 440.117C57.0417 398.868 73.2777 364.576 103.194 342.611C117.72 331.945 135.555 324.289 154.525 320.574C166.654 318.199 168.055 318.113 189.025 318.449C205.206 318.709 210.483 319.184 220.025 321.241ZM391.025 321.281C396.8 322.643 404.747 324.96 408.685 326.431L415.846 329.104L413.437 337.772C412.112 342.539 409.63 351.614 407.922 357.939C406.213 364.264 404.647 369.718 404.442 370.058C404.237 370.399 400.121 369.199 395.297 367.392C382.381 362.554 372.347 360.723 358.025 360.592C348.727 360.506 344.069 360.922 339.841 362.216C320.983 367.989 315.201 385.656 328.081 398.15C334.086 403.975 338.554 406.275 362.525 415.878C391.799 427.605 405.57 436.947 415.38 451.736C421.691 461.248 424.089 469.135 424.746 482.542C426.652 521.394 401.194 548.768 356.099 556.353C345.401 558.153 323.937 558.428 310.891 556.933C297.543 555.404 272.791 548.658 267.048 544.985C265.781 544.174 266.276 541.179 270.528 523.925C273.255 512.862 275.746 503.39 276.064 502.876C276.385 502.357 280.565 503.523 285.464 505.499C303.172 512.639 326.113 516.869 340.089 515.57C360.372 513.685 372.014 504.338 372.014 489.939C372.014 476.996 362.579 468.13 339.025 458.934C307.261 446.534 298.122 441.385 286.025 429.073C273.798 416.628 269.058 404.999 269.037 387.399C269.018 371.179 273.42 358.911 283.756 346.381C294.979 332.773 313.956 322.846 335.485 319.319C348.641 317.164 377.957 318.199 391.025 321.281ZM500.718 325.189C501.285 327.526 509.251 355.539 518.421 387.439C534.474 443.281 543.015 475.461 546.8 494.366C547.783 499.276 549.086 503.459 549.696 503.663C550.357 503.883 551.488 500.89 552.503 496.235C559.555 463.879 565.556 442.508 598.494 332.439L601.785 321.439L629.405 321.173C644.596 321.027 657.024 321.027 657.024 321.173C657.023 321.319 653.228 332.689 648.591 346.439C605.07 475.481 585.333 534.187 582.276 543.689L578.655 554.939H548.036H517.416L487.068 460.189C470.376 408.076 453.638 355.935 449.872 344.318C446.106 332.701 443.025 322.689 443.025 322.068C443.025 321.256 450.978 320.939 471.357 320.939H499.688L500.718 325.189ZM613.025 684.439V759.939H355.025H97.0247V684.439V608.939H355.025H613.025V684.439Z" fill="currentColor"/>
</svg>
