<svg width="512" height="512" viewBox="0 0 5032 5032" fill="none" xmlns="http://www.w3.org/2000/svg">
  <rect width="5032" height="5032" fill="#0f1520"/>
  <g transform="translate(0, 1486)">
    <path fill-rule="evenodd" clip-rule="evenodd" d="M2498.59 6.38045C2488.32 12.3638 2487.5 31.74 2487.5 269.229V525.613H1245.57C501.966 525.613 2.19819 527.939 0.0558467 531.406C-1.91536 534.595 48.5438 557.742 112.187 582.842C175.829 607.941 237.881 632.718 250.082 637.902C262.284 643.093 277.971 649.514 284.943 652.176C291.915 654.838 304.75 660.124 313.465 663.921C378.154 692.101 237.501 690.421 2515.21 690.181L4652.02 689.952L4843.82 612.067C4949.3 569.227 5033.68 532.249 5031.32 529.898C5028.97 527.54 4467.05 525.613 3782.62 525.613H2538.21V367.834C2538.21 188.594 2533.37 202.36 2596.36 202.36C2629.2 202.36 2634.93 204.122 2637.8 215.107C2642.46 232.943 2655.41 234.762 2763.21 232.702L2858.29 230.883L2860.04 140.562L2861.81 50.2414H2798.99C2741.5 50.2414 2735.89 49.1639 2732.85 37.5648C2729.73 25.5981 2724.21 24.8882 2634.61 24.8882C2545.01 24.8882 2539.5 24.1784 2536.37 12.2117C2532.79 -1.4727 2516.41 -4.00167 2498.59 6.38045ZM389.525 769.644V810.855L2514.44 809.258L4639.35 807.667L4641.24 768.053L4643.12 728.438H2516.33H389.525V769.644ZM395.863 847.313C395.863 850.146 411.55 867.963 430.724 886.896L465.584 921.325V1248.18V1575.03L430.724 1609.46C411.55 1628.39 395.863 1646.13 395.863 1648.86C395.863 1651.59 432.885 1653.83 478.14 1653.83C558.212 1653.83 560.507 1653.45 563.872 1639.57C565.774 1631.72 566.541 1449.89 565.577 1235.5L563.828 845.697L479.845 843.928C433.658 842.959 395.863 844.48 395.863 847.313ZM912.282 850.172C910.558 854.684 909.886 1036.64 910.792 1254.52L912.434 1650.66L958.196 1652.52C1001.38 1654.27 1004.16 1653.56 1007.48 1639.84C1009.42 1631.85 1010.22 1449.89 1009.26 1235.5L1007.51 845.697L961.467 843.833C928.235 842.49 914.544 844.252 912.282 850.172ZM1357.42 846.502C1351.09 852.834 1352.01 1636.21 1358.36 1646.22C1362.03 1652 1376.63 1653.89 1407.39 1652.55L1451.19 1650.66V1248.18V845.697L1406.54 843.859C1381.99 842.851 1359.89 844.043 1357.42 846.502ZM1799.64 850.172C1797.92 854.684 1797.25 1036.64 1798.15 1254.52L1799.79 1650.66H1847.33H1894.87V1248.18V845.697L1848.83 843.833C1815.6 842.49 1801.91 844.252 1799.64 850.172ZM2244.78 846.502C2238.45 852.834 2239.37 1636.21 2245.72 1646.22C2249.39 1652 2263.99 1653.89 2294.75 1652.55L2338.55 1650.66V1248.18V845.697L2293.9 843.859C2269.35 842.851 2247.25 844.043 2244.78 846.502ZM2688.46 846.502C2682.13 852.834 2683.05 1636.21 2689.41 1646.22C2693.07 1652 2707.67 1653.89 2738.43 1652.55L2782.23 1650.66V1248.18V845.697L2737.58 843.859C2713.03 842.851 2690.93 844.043 2688.46 846.502ZM3134 1247.9V1653.83H3181.59H3229.17L3227.54 1249.76L3225.91 845.697L3179.96 843.833L3134 841.97V1247.9ZM3581.91 846.755C3579.59 849.075 3577.68 1031.62 3577.68 1252.41V1653.83H3625.22H3672.76V1248.18V842.528H3629.45C3605.62 842.528 3584.23 844.429 3581.91 846.755ZM4024.27 850.451C4022.61 854.811 4021.99 1036.64 4022.89 1254.52L4024.53 1650.66L4070.49 1652.52L4116.44 1654.39V1248.46V842.528H4071.87C4042.06 842.528 4026.3 845.152 4024.27 850.451ZM4467.95 850.451C4466.29 854.811 4465.67 1036.64 4466.57 1254.52L4468.21 1650.66L4549.03 1652.43C4604.44 1653.65 4629.84 1652.02 4629.84 1647.27C4629.84 1643.45 4614.15 1624.64 4594.98 1605.47L4560.12 1570.61V1247.77V924.925L4594.98 889.786C4614.15 870.46 4629.84 851.921 4629.84 848.587C4629.84 838.928 4471.66 840.747 4467.95 850.451ZM389.525 1777.43V1856.65H2516.02H4642.52V1777.43V1698.2H2516.02H389.525V1777.43ZM311.545 1969.75C270.771 2011.03 237.406 2048.11 237.406 2052.15C237.406 2057.69 793.8 2059.48 2512.48 2059.48C3763.77 2059.48 4788.84 2057.34 4790.43 2054.73C4792.01 2052.11 4759.83 2015.04 4718.91 1972.33L4644.51 1894.68H2515.1H385.684L311.545 1969.75Z" fill="#ffffff"/>
  </g>
</svg>